<svg viewBox="0 0 19 19" fill="none" xmlns="http://www.w3.org/2000/svg"><path d="M14.45 12.57c-.63-.61-1.4-.61-2.02 0l-1.4 1.4c-.13.14-.23.16-.39.08-.3-.17-.63-.3-.92-.49a14.6 14.6 0 0 1-3.52-3.2 8.34 8.34 0 0 1-1.26-2.02c-.06-.15-.05-.25.07-.37.47-.45.93-.92 1.4-1.39.64-.65.64-1.4-.01-2.06l-1.1-1.1-1.14-1.14c-.62-.6-1.4-.6-2.02 0-.47.47-.92.95-1.4 1.4a2.3 2.3 0 0 0-.73 1.55c-.07.98.17 1.91.51 2.82.7 1.87 1.76 3.54 3.04 5.06 1.74 2.07 3.8 3.7 6.23 4.88 1.1.53 2.22.94 3.45 1 .85.05 1.58-.16 2.17-.82.4-.45.86-.86 1.29-1.3.63-.64.64-1.41 0-2.04-.74-.76-1.5-1.51-2.25-2.26Zm-.75-3.15 1.45-.25a6.52 6.52 0 0 0-5.54-5.37l-.2 1.46a5.03 5.03 0 0 1 4.28 4.16Z" fill="#fff"/><path d="M15.97 3.08a10.76 10.76 0 0 0-6.17-3.08l-.2 1.47a9.33 9.33 0 0 1 7.94 7.7l1.46-.25a10.84 10.84 0 0 0-3.03-5.84Z" fill="#fff"/></svg>