<svg viewBox="0 0 17 23" fill="none" xmlns="http://www.w3.org/2000/svg"><path d="M14.08 7.23c-.06-.23-.18-.47-.28-.68a5.71 5.71 0 0 0-5.38-3.55 5.72 5.72 0 0 0-5.78 5.27v.73c0 .03.01.3.03.44.21 1.69 1.55 3.49 2.54 5.18 1.08 1.81 2.19 3.6 3.3 5.38l2.02-3.48c.18-.33.39-.66.57-.98.12-.2.35-.42.46-.62 1.07-1.96 2.8-3.94 2.8-5.9v-.8c0-.2-.27-.94-.28-.99Zm-5.61 3.64c-.76 0-1.58-.37-2-1.42-.05-.16-.05-.5-.05-.53v-.47c0-1.32 1.13-1.93 2.11-1.93 1.21 0 2.15.97 2.15 2.18 0 1.2-1 2.17-2.21 2.17Z" fill="#fff"/></svg>